<svg width="100%" height="100%" viewBox="0 0 6561 1134" version="1.1" xmlns="http://www.w3.org/2000/svg"
                xmlns:xlink="http://www.w3.org/1999/xlink" xml:space="preserve" xmlns:serif="http://www.serif.com/"
                style="fill-rule:evenodd;clip-rule:evenodd;stroke-linejoin:round;stroke-miterlimit:1.41421;">
                <g transform="matrix(1.19273,0,0,1.19273,-5639.38,-1160.49)">
                    <path
                        d="M10037,1565.06C10037,1691.47 10228.6,1691.47 10228.6,1565.06C10228.6,1438.66 10037,1438.66 10037,1565.06Z"
                        style="fill:rgb(255,44,65);fill-rule:nonzero;" />
                </g>
                <path
                    d="M448.944,6.35C449.885,6.353 450.825,6.358 451.763,6.366C453.383,6.381 454.999,6.403 456.611,6.434C458.351,6.466 460.087,6.508 461.819,6.56L462.966,6.595C466.05,6.694 469.12,6.823 472.175,6.982C473.038,7.027 473.899,7.074 474.758,7.123C478.027,7.311 481.279,7.532 484.515,7.787C485.988,7.903 487.457,8.026 488.923,8.155C495.483,8.736 501.974,9.454 508.394,10.308C511.228,10.685 514.048,11.088 516.854,11.517C522.071,12.315 527.24,13.203 532.36,14.179C533.532,14.403 534.703,14.631 535.87,14.864C541.488,15.985 547.046,17.212 552.543,18.544L553.119,18.684L553.69,18.824C555.883,19.362 558.066,19.917 560.24,20.489C563.348,21.306 566.437,22.157 569.504,23.042L570.492,23.328L571.109,23.508C578.925,25.797 586.608,28.304 594.154,31.023C595.434,31.484 596.71,31.951 597.982,32.424C602.497,34.104 606.962,35.86 611.376,37.691C616.828,39.952 622.202,42.328 627.496,44.814C628.122,45.108 628.746,45.403 629.368,45.699C641.586,51.518 653.376,57.932 664.716,64.906L665.409,65.333L665.761,65.551C671.558,69.142 677.237,72.88 682.795,76.76C683.73,77.413 684.662,78.07 685.59,78.731C688.011,80.455 690.409,82.206 692.783,83.984C694.387,85.186 695.981,86.399 697.564,87.625L698.026,87.983L698.971,88.72L699.807,89.377C700.399,89.842 700.989,90.31 701.578,90.779C702.714,91.684 703.845,92.597 704.971,93.515C705.518,93.962 706.064,94.411 706.609,94.86C710.556,98.12 714.43,101.458 718.231,104.871C724.382,110.396 730.341,116.12 736.101,122.036C737.683,123.659 739.249,125.298 740.8,126.95L741.201,127.376L742.014,128.248L742.825,129.122C744.076,130.476 745.316,131.839 746.547,133.211C749.138,136.1 751.684,139.029 754.186,141.998L754.647,142.545L755.356,143.393C756.135,144.328 756.91,145.266 757.681,146.208L757.692,146.221L757.992,146.589C766.327,156.808 774.141,167.482 781.412,178.578L781.717,179.043L782.006,179.487C789.898,191.605 797.145,204.222 803.719,217.293L803.96,217.773L804.173,218.2C804.686,219.226 805.195,220.256 805.7,221.288C806.151,222.212 806.6,223.138 807.045,224.065C810.618,231.517 813.976,239.111 817.114,246.839C817.497,247.781 817.876,248.726 818.252,249.673C824.131,264.466 829.208,279.741 833.448,295.443C834.026,297.582 834.588,299.728 835.134,301.883C835.652,303.926 836.157,305.977 836.647,308.034C837.063,309.78 837.468,311.531 837.864,313.287C838.856,317.691 839.784,322.125 840.647,326.589C841.38,330.386 842.067,334.203 842.707,338.042C842.88,339.085 843.051,340.129 843.217,341.175C843.599,343.57 843.962,345.972 844.307,348.382C844.442,349.325 844.574,350.269 844.703,351.215C845.217,354.976 845.687,358.756 846.11,362.553C846.214,363.481 846.314,364.41 846.413,365.34C846.688,367.95 846.942,370.567 847.174,373.193C847.362,375.314 847.536,377.44 847.695,379.571C847.739,380.148 847.781,380.726 847.822,381.304C847.939,382.942 848.047,384.584 848.147,386.228C848.302,388.779 848.437,391.338 848.552,393.903C848.593,394.82 848.632,395.738 848.668,396.656C848.732,398.294 848.788,399.935 848.835,401.578C848.972,406.294 849.04,411.032 849.04,415.792C849.04,425.746 848.766,435.61 848.221,445.373C848.065,448.17 847.887,450.959 847.686,453.74C847.525,455.973 847.35,458.201 847.16,460.423C847.102,461.101 847.043,461.778 846.982,462.456C846.59,466.847 846.141,471.217 845.637,475.563C845.553,476.293 845.467,477.022 845.379,477.75C844.83,482.311 844.219,486.846 843.547,491.353C843.436,492.099 843.323,492.844 843.208,493.589C842.384,498.947 841.473,504.267 840.477,509.546C840.234,510.831 839.986,512.114 839.733,513.395C838.634,518.96 837.439,524.479 836.149,529.949C835.881,531.087 835.609,532.222 835.332,533.355C835.126,534.199 834.918,535.041 834.707,535.882C833.954,538.892 833.172,541.886 832.361,544.865L832.147,545.65L832.018,546.116C831.021,549.737 829.98,553.334 828.897,556.907C827.853,560.352 826.769,563.775 825.645,567.174C825.244,568.388 824.838,569.599 824.426,570.807C824.178,571.535 823.928,572.262 823.677,572.988C823.372,573.868 823.064,574.746 822.754,575.623C821.665,578.699 820.543,581.755 819.388,584.792C817.992,588.46 816.549,592.099 815.058,595.707C814.545,596.947 814.027,598.183 813.503,599.416C812.898,600.84 812.286,602.259 811.666,603.672L811.368,604.351L810.943,605.312C810.382,606.576 809.816,607.836 809.243,609.092C806.819,614.405 804.288,619.646 801.651,624.813C801.166,625.762 800.678,626.709 800.186,627.654L799.947,628.112L799.517,628.932C798.853,630.194 798.184,631.451 797.508,632.704L797.148,633.371L797.037,633.574C796.018,635.45 794.985,637.316 793.937,639.171C793.503,639.939 793.066,640.706 792.628,641.471C792.076,642.432 791.52,643.392 790.96,644.347C787.831,649.69 784.581,654.941 781.209,660.098C780.408,661.324 779.599,662.545 778.784,663.761L778.126,664.738C775.85,668.107 773.522,671.434 771.141,674.718C770.673,675.364 770.202,676.009 769.729,676.653C767.408,679.811 765.039,682.928 762.621,686.004C762.199,686.541 761.775,687.077 761.35,687.612C760.032,689.268 758.7,690.913 757.354,692.544C756.568,693.499 755.776,694.449 754.979,695.394C752.859,697.912 750.704,700.4 748.515,702.858C746.057,705.616 743.557,708.336 741.014,711.017L740.695,711.353L739.922,712.162C739.053,713.07 738.179,713.974 737.3,714.873C735.749,716.458 734.183,718.03 732.601,719.586C732.281,719.901 731.96,720.216 731.639,720.53L730.799,721.348C729.878,722.242 728.951,723.131 728.02,724.014C727.443,724.562 726.864,725.108 726.283,725.652C725.118,726.742 723.945,727.825 722.765,728.9C722.068,729.534 721.369,730.166 720.667,730.796C719.891,731.491 719.112,732.182 718.33,732.87L717.854,733.289L716.968,734.063L716.08,734.834L715.663,735.194C709.205,740.761 702.527,746.106 695.63,751.218C692.678,753.406 689.686,755.551 686.654,757.653C684.808,758.932 682.948,760.196 681.073,761.443C679.464,762.513 677.844,763.572 676.213,764.618C675.496,765.078 674.777,765.536 674.056,765.991L673.22,766.517L673.027,766.637L672.204,767.152L671.864,767.363C651.807,779.82 630.16,790.473 606.981,799.116C605.714,799.589 604.442,800.055 603.166,800.516C596.466,802.933 589.64,805.184 582.69,807.263L582.229,807.401L581.975,807.477C579.292,808.274 576.59,809.046 573.87,809.792C572.765,810.095 571.657,810.394 570.545,810.688C566.536,811.751 562.487,812.759 558.399,813.71C557.886,813.829 557.372,813.948 556.857,814.065C555.743,814.32 554.626,814.57 553.506,814.816C552.359,815.068 551.209,815.316 550.055,815.56C545.939,816.429 541.784,817.241 537.59,817.997C536.485,818.196 535.377,818.391 534.266,818.581C530.513,819.227 526.73,819.827 522.916,820.381C520.346,820.755 517.762,821.107 515.165,821.437C514.129,821.569 513.092,821.698 512.052,821.824L510.683,821.986C510.065,822.059 509.446,822.13 508.827,822.2C507.615,822.337 506.399,822.47 505.181,822.599C500.972,823.041 496.729,823.429 492.451,823.761L491.251,823.853L489.845,823.957C488.252,824.072 486.654,824.179 485.052,824.279C478.061,824.714 470.98,825.002 463.809,825.14C462.455,825.166 461.098,825.187 459.737,825.203L459.359,825.206C458.025,825.221 456.688,825.23 455.348,825.233L453.88,825.236C453.501,825.236 453.121,825.235 452.74,825.234C451.502,825.23 450.255,825.221 449,825.206L448.013,825.193L447.919,825.192C444.402,825.141 440.82,825.044 437.181,824.899L436.946,824.889L436.497,824.871C435.388,824.825 434.273,824.774 433.154,824.72L432.829,824.704L431.878,824.655L431.792,824.651C430.42,824.579 429.041,824.501 427.654,824.415L427.619,824.413L427.482,824.405C422.283,824.082 416.986,823.663 411.613,823.138C410.361,823.016 409.105,822.888 407.844,822.754C404.296,822.378 400.718,821.956 397.114,821.486L396.251,821.373C393.383,820.994 390.5,820.584 387.604,820.143C385.646,819.845 383.682,819.533 381.713,819.207L380.93,819.075C380.183,818.95 379.434,818.822 378.685,818.693L378.33,818.631L377.28,818.447C374.561,817.967 371.835,817.459 369.103,816.922C365.696,816.253 362.281,815.539 358.862,814.778L357.892,814.562L356.752,814.303C355.901,814.11 355.05,813.913 354.199,813.713C353.171,813.472 352.144,813.226 351.116,812.977L351.05,812.961L350.654,812.864C347.951,812.204 345.248,811.515 342.547,810.795C339.5,809.983 336.456,809.132 333.418,808.242C330.554,807.403 327.696,806.528 324.845,805.618C324.106,805.381 323.368,805.143 322.629,804.902C320.748,804.287 318.87,803.656 316.996,803.009L315.873,802.619C314.013,801.97 312.157,801.304 310.308,800.623C309.126,800.187 307.948,799.745 306.772,799.297C305.696,798.887 304.623,798.471 303.552,798.05C302.091,797.475 300.634,796.889 299.181,796.293L298.081,795.839C297.263,795.5 296.447,795.158 295.632,794.811C289.032,792.009 282.533,788.982 276.173,785.718C274.902,785.065 273.636,784.404 272.376,783.733L272.29,783.687L272.222,783.651C270.569,782.769 268.927,781.87 267.295,780.954L267.093,780.842L266.912,780.739C260.438,777.095 254.134,773.186 248.042,769.001L247.073,768.332C246.751,768.108 246.429,767.883 246.108,767.658L245.146,766.979L244.794,766.728L244.666,766.637L244.398,766.445C242.643,765.189 240.906,763.909 239.19,762.604L238.987,762.45L238.896,762.381C237.36,761.209 235.839,760.018 234.336,758.807L233.905,758.46L233.628,758.235L233.449,758.09L233.228,757.909C232.924,757.661 232.62,757.412 232.317,757.161L232.088,756.972L231.869,756.79C227.658,753.294 223.585,749.638 219.669,745.815L219.441,745.593L219.172,745.329L219.022,745.182L218.96,745.12L218.604,744.769L218.212,744.379C215.458,741.635 212.783,738.806 210.194,735.892C208.338,733.802 206.526,731.668 204.761,729.489C202.99,727.304 201.266,725.073 199.592,722.797L199.362,722.484L199.253,722.334C198.393,721.158 197.547,719.97 196.714,718.769L196.603,718.61L196.471,718.418C196.238,718.081 196.007,717.743 195.776,717.404C195.257,716.64 194.743,715.871 194.234,715.098L193.939,714.648L193.613,714.146L193.613,1133.11L0,1133.11L0,23.805L180.917,23.805L193.613,131.72L194.322,130.7C195.101,129.584 195.887,128.476 196.681,127.376C197.469,126.283 198.265,125.197 199.068,124.12C200.542,122.142 202.038,120.192 203.558,118.268C204.259,117.38 204.964,116.499 205.675,115.622C206.122,115.07 206.572,114.52 207.023,113.973C208.426,112.271 209.847,110.591 211.286,108.933C212.603,107.414 213.934,105.913 215.28,104.431C216.36,103.241 217.449,102.063 218.547,100.897L219.02,100.394L219.792,99.582C225.266,93.845 230.956,88.392 236.836,83.217C238.142,82.067 239.459,80.93 240.783,79.807C243.816,77.237 246.896,74.739 250.02,72.313C253.107,69.914 256.237,67.585 259.406,65.324L260.365,64.642C261.538,63.813 262.717,62.993 263.9,62.183C264.378,61.855 264.857,61.529 265.337,61.204C268.83,58.841 272.367,56.559 275.943,54.356L276.026,54.305L276.958,53.734C279.737,52.038 282.539,50.39 285.362,48.789C285.964,48.448 286.566,48.109 287.169,47.772L287.747,47.451C288.399,47.089 289.053,46.729 289.707,46.372C291.021,45.655 292.339,44.949 293.66,44.252C295.066,43.511 296.477,42.782 297.892,42.064C299.663,41.165 301.44,40.284 303.224,39.42C307.335,37.431 311.479,35.535 315.651,33.733C319.824,31.929 324.025,30.219 328.247,28.6C329.245,28.218 330.244,27.84 331.244,27.468C332.697,26.927 334.152,26.397 335.61,25.878L336.482,25.569L337.002,25.386C338.021,25.028 339.04,24.675 340.061,24.328C340.761,24.09 341.461,23.854 342.162,23.62C343.706,23.106 345.252,22.604 346.8,22.114L347.284,21.96L348.145,21.69L348.367,21.621L349.2,21.363C349.949,21.132 350.697,20.904 351.447,20.678C354.149,19.864 356.856,19.087 359.565,18.345C360.714,18.03 361.864,17.721 363.014,17.419C364.081,17.139 365.148,16.864 366.216,16.595C367.005,16.396 367.794,16.2 368.584,16.007C369.562,15.767 370.541,15.532 371.52,15.302C372.21,15.139 372.901,14.979 373.592,14.821C374.252,14.67 374.913,14.521 375.574,14.374L376.664,14.133C377.821,13.88 378.979,13.632 380.136,13.392C386.325,12.104 392.51,10.996 398.672,10.066L399.522,9.939L399.981,9.872C401.911,9.588 403.838,9.322 405.761,9.073C407.291,8.875 408.819,8.688 410.345,8.512C414.498,8.033 418.636,7.635 422.752,7.316C423.306,7.273 423.858,7.232 424.411,7.191L425.304,7.128C426.039,7.077 426.773,7.028 427.506,6.982L428.571,6.917C430.177,6.821 431.78,6.737 433.379,6.666C436.997,6.504 440.594,6.405 444.167,6.366C445.291,6.354 446.413,6.348 447.532,6.348L448.944,6.35ZM5136.83,692.467C5136.36,693.422 5135.89,694.372 5135.41,695.317C5134.94,696.244 5134.46,697.167 5133.97,698.084C5133.32,699.295 5132.66,700.497 5131.99,701.691L5131.83,701.979L5131.53,702.497C5123.8,716.068 5114.34,728.519 5103.55,739.869C5103.19,740.249 5102.82,740.628 5102.46,741.006C5102.1,741.378 5101.74,741.748 5101.38,742.117C5101.22,742.276 5101.07,742.434 5100.91,742.592L5100.49,743.017C5100.21,743.301 5099.93,743.583 5099.65,743.864C5098.79,744.72 5097.93,745.569 5097.06,746.412C5094.74,748.655 5092.37,750.852 5089.94,753.003L5089.6,753.31L5089.32,753.553C5079.15,762.523 5068.13,770.684 5056.51,778.045C5054.59,779.266 5052.65,780.465 5050.69,781.642C5047.09,783.802 5043.45,785.888 5039.76,787.9C5036.84,789.495 5033.89,791.044 5030.92,792.546C5029.35,793.338 5027.78,794.118 5026.2,794.884C5024.27,795.819 5022.34,796.734 5020.4,797.631L5019.56,798.018L5019.44,798.068C5017.82,798.813 5016.19,799.544 5014.55,800.262C5013.03,800.926 5011.52,801.579 5009.99,802.221C5006.6,803.652 5003.18,805.028 4999.75,806.347C4998.76,806.728 4997.77,807.105 4996.78,807.477C4995.22,808.059 4993.66,808.63 4992.11,809.189C4990.93,809.612 4989.75,810.029 4988.56,810.439C4987.95,810.652 4987.34,810.864 4986.72,811.074L4985.57,811.463C4974.78,815.104 4963.92,818.203 4953.14,820.765L4952.28,820.969C4947.18,822.168 4942.1,823.248 4937.05,824.207C4927.54,826.018 4918.15,827.403 4909.01,828.368C4907.57,828.519 4906.15,828.66 4904.73,828.791C4901.82,829.058 4898.94,829.283 4896.08,829.464C4893.91,829.602 4891.76,829.715 4889.63,829.803C4888.48,829.851 4887.35,829.891 4886.21,829.924L4885.23,829.951L4884.65,829.965C4884.16,829.977 4883.66,829.988 4883.17,829.997C4877.52,830.035 4871.9,829.988 4866.32,829.855C4863.73,829.793 4861.15,829.713 4858.58,829.614C4857.54,829.574 4856.51,829.531 4855.47,829.486C4852.2,829.341 4848.95,829.167 4845.72,828.963L4844.4,828.879C4841.03,828.657 4837.68,828.404 4834.34,828.118C4833.63,828.057 4832.92,827.995 4832.22,827.932C4825.04,827.287 4817.94,826.492 4810.9,825.548L4810.73,825.524L4809.5,825.357C4804.42,824.66 4799.39,823.884 4794.39,823.031L4794.31,823.016L4793.52,822.881C4763.41,817.678 4734.79,809.636 4707.98,798.792C4705.9,797.952 4703.84,797.096 4701.78,796.223C4701.16,795.956 4700.53,795.687 4699.9,795.417L4698.95,795.003L4697.88,794.537C4697.33,794.295 4696.78,794.052 4696.23,793.807C4693.37,792.539 4690.54,791.238 4687.73,789.904C4678.87,785.697 4670.23,781.162 4661.82,776.301C4659.91,775.197 4658.02,774.077 4656.13,772.939C4654.85,772.163 4653.57,771.379 4652.29,770.588C4651.13,769.869 4649.98,769.144 4648.83,768.412C4647.3,767.436 4645.78,766.449 4644.27,765.449L4643.92,765.217L4643.3,764.805C4637.95,761.25 4632.71,757.55 4627.58,753.708C4626.5,752.903 4625.43,752.091 4624.37,751.273C4623.86,750.88 4623.34,750.485 4622.83,750.089C4622.14,749.546 4621.44,749.001 4620.74,748.453L4620.24,748.051L4619.71,747.63L4619.32,747.323L4618.67,746.799L4618.41,746.592L4617.76,746.067C4608.05,738.222 4598.77,729.834 4589.95,720.906L4589.74,720.685L4589.57,720.517C4589.04,719.975 4588.51,719.431 4587.98,718.885C4586.37,717.231 4584.78,715.558 4583.2,713.868C4582.51,713.128 4581.82,712.385 4581.14,711.638C4579.97,710.358 4578.81,709.068 4577.65,707.767C4576.5,706.471 4575.36,705.165 4574.23,703.848C4573.55,703.055 4572.87,702.259 4572.19,701.46C4568.61,697.21 4565.11,692.857 4561.71,688.4C4558.23,683.837 4554.85,679.165 4551.57,674.384C4550.91,673.433 4550.26,672.476 4549.62,671.516C4535.27,650.159 4522.91,626.684 4512.76,601.116C4511.65,598.315 4510.57,595.489 4509.51,592.637C4508.79,590.688 4508.07,588.727 4507.38,586.755C4506.85,585.277 4506.34,583.793 4505.83,582.302C4505.55,581.473 4505.27,580.641 4504.99,579.808C4504.62,578.723 4504.27,577.634 4503.91,576.541C4501.89,570.341 4500,564.03 4498.22,557.608C4497.92,556.514 4497.62,555.417 4497.33,554.317C4495.47,547.358 4493.75,540.271 4492.17,533.056C4489.47,520.647 4487.2,507.86 4485.39,494.696C4482.41,473.033 4480.65,450.348 4480.2,426.653C4480.12,422.534 4480.08,418.385 4480.08,414.205C4480.08,412.936 4480.08,411.671 4480.09,410.408C4480.1,409.356 4480.11,408.306 4480.12,407.258C4480.17,402.965 4480.26,398.706 4480.4,394.48C4480.45,393.08 4480.5,391.683 4480.56,390.29L4480.6,389.289L4480.61,389.117C4480.78,384.956 4481.01,380.827 4481.27,376.732C4481.66,370.761 4482.14,364.859 4482.71,359.026C4483.26,353.41 4483.9,347.859 4484.61,342.372C4485.16,338.166 4485.77,333.997 4486.41,329.867C4486.56,328.931 4486.71,327.996 4486.86,327.064C4488.68,315.884 4490.86,304.986 4493.38,294.371C4493.61,293.418 4493.84,292.468 4494.07,291.52C4495.96,283.79 4498.03,276.213 4500.28,268.787C4500.58,267.8 4500.88,266.816 4501.18,265.833L4501.58,264.564C4504.4,255.591 4507.49,246.844 4510.82,238.324C4515.62,226.083 4520.94,214.311 4526.75,203.01C4527.06,202.413 4527.36,201.818 4527.67,201.224C4528.42,199.786 4529.18,198.355 4529.95,196.932C4531.1,194.786 4532.28,192.657 4533.47,190.546C4536.15,185.784 4538.93,181.111 4541.8,176.529C4543.61,173.627 4545.47,170.761 4547.35,167.931C4556.86,153.678 4567.26,140.338 4578.48,127.92C4579.11,127.22 4579.74,126.522 4580.38,125.828C4581.89,124.186 4583.41,122.561 4584.95,120.952C4592.33,113.23 4600.03,105.886 4608.05,98.923C4612.15,95.367 4616.32,91.91 4620.58,88.552C4622.81,86.789 4625.07,85.053 4627.34,83.345C4629.89,81.434 4632.46,79.558 4635.06,77.716C4635.99,77.061 4636.92,76.409 4637.85,75.762C4647.25,69.236 4656.98,63.154 4667.03,57.518C4667.84,57.063 4668.65,56.611 4669.46,56.162C4672.46,54.51 4675.48,52.898 4678.54,51.325C4679.86,50.64 4681.2,49.962 4682.54,49.292C4683.86,48.631 4685.18,47.978 4686.51,47.332L4686.68,47.249L4686.96,47.114C4692.65,44.359 4698.42,41.737 4704.28,39.248C4705.4,38.77 4706.53,38.296 4707.66,37.828C4708.81,37.353 4709.96,36.883 4711.11,36.419C4714.25,35.155 4717.41,33.929 4720.59,32.741C4723.11,31.8 4725.65,30.882 4728.2,29.988C4730.49,29.181 4732.8,28.394 4735.12,27.626C4737.82,26.733 4740.54,25.865 4743.27,25.024C4747.44,23.738 4751.64,22.513 4755.87,21.348C4759.13,20.454 4762.4,19.596 4765.69,18.774C4767.68,18.277 4769.68,17.793 4771.68,17.322C4773.43,16.91 4775.19,16.508 4776.96,16.117C4779.03,15.657 4781.1,15.21 4783.19,14.778C4789.23,13.525 4795.33,12.388 4801.49,11.369C4802.86,11.142 4804.24,10.92 4805.62,10.704C4810.23,9.983 4814.87,9.327 4819.54,8.736C4822.42,8.372 4825.31,8.033 4828.21,7.718C4829.44,7.585 4830.68,7.456 4831.91,7.331C4837.4,6.778 4842.93,6.313 4848.49,5.937L4849.6,5.863L4850,5.838C4857.94,5.324 4865.96,4.992 4874.05,4.842C4875.78,4.809 4877.52,4.785 4879.25,4.77C4880.25,4.761 4881.24,4.755 4882.23,4.751L4882.59,4.75L4883.26,4.749L4883.92,4.748L4885.26,4.749C4886.15,4.751 4887.04,4.755 4887.93,4.761C4891.17,4.761 4894.39,4.808 4897.61,4.901C4898.67,4.932 4899.72,4.967 4900.77,5.007L4901.4,5.032L4902.43,5.075C4903.69,5.129 4904.95,5.191 4906.21,5.259C4912.46,5.6 4918.68,6.114 4924.86,6.797C4928.25,7.172 4931.64,7.597 4935,8.073C4937.43,8.416 4939.86,8.785 4942.27,9.18C4942.86,9.276 4943.44,9.373 4944.03,9.473L4944.83,9.608L4946.01,9.814L4946.33,9.869C4950.85,10.666 4955.35,11.554 4959.81,12.531C4961.07,12.806 4962.33,13.089 4963.58,13.378C4966.85,14.134 4970.11,14.938 4973.34,15.79C4976.06,16.505 4978.76,17.253 4981.45,18.035C4988.46,20.074 4995.37,22.337 5002.15,24.816C5003.01,25.132 5003.88,25.451 5004.73,25.775C5006.69,26.509 5008.64,27.261 5010.57,28.031C5012.37,28.749 5014.16,29.482 5015.94,30.231C5017.33,30.811 5018.7,31.401 5020.07,32C5025.53,34.388 5030.9,36.922 5036.15,39.598L5037.17,40.119C5038.04,40.569 5038.91,41.022 5039.78,41.481C5040.39,41.802 5041,42.126 5041.61,42.452L5042.22,42.779L5043,43.202C5060.98,52.967 5077.56,64.427 5092.25,77.391C5092.84,77.907 5093.42,78.426 5094,78.948C5094.92,79.775 5095.83,80.609 5096.74,81.448C5108.25,92.132 5118.52,103.778 5127.29,116.285C5128.25,117.65 5129.19,119.026 5130.11,120.412C5132.57,124.11 5134.9,127.88 5137.09,131.72L5143.44,23.805L5329.12,23.805L5329.12,806.192L5146.61,806.192L5137.09,691.928L5136.83,692.467ZM1970.99,0.002C2231.44,0.632 2394.07,161.869 2364.79,482.147L2364.62,484.032L1753.63,484.032C1766.32,580.839 1850.43,650.667 1986.91,650.667L1987.75,650.665C2059.06,650.455 2152.13,623.508 2196.4,577.665L2320.18,699.863C2237.98,785.226 2103.82,826.5 1985.13,826.821L1983.74,826.823C1713.95,826.823 1553.66,660.188 1553.66,409.444C1553.66,171.395 1715.54,0 1969.46,0L1970.99,0.002ZM5833.08,187.266C5832.44,187.268 5831.79,187.273 5831.15,187.282C5827.4,187.328 5823.69,187.474 5820.02,187.717C5819.02,187.783 5818.03,187.856 5817.04,187.936C5813.66,188.21 5810.31,188.567 5807,189.005L5806.6,189.057C5802.05,189.667 5797.57,190.43 5793.15,191.341C5792.77,191.421 5792.38,191.501 5791.99,191.583C5788.21,192.388 5784.48,193.301 5780.8,194.319L5780.32,194.452L5779.93,194.561C5778.01,195.102 5776.11,195.671 5774.22,196.269C5773.53,196.486 5772.85,196.707 5772.16,196.932L5771.73,197.074L5771.33,197.209C5770.94,197.34 5770.55,197.473 5770.15,197.607C5769.76,197.74 5769.37,197.875 5768.99,198.01L5768.72,198.104L5768.53,198.168C5764.93,199.436 5761.39,200.807 5757.91,202.279L5757.5,202.452L5756.98,202.676C5754.5,203.738 5752.05,204.851 5749.64,206.014C5749.26,206.197 5748.88,206.38 5748.5,206.565C5741.37,210.058 5734.51,213.985 5727.94,218.313C5727.5,218.605 5727.06,218.899 5726.61,219.194C5726.25,219.44 5725.88,219.686 5725.52,219.935C5725.15,220.183 5724.79,220.433 5724.43,220.684C5723.63,221.235 5722.84,221.793 5722.05,222.356L5721.7,222.607L5721.54,222.721C5721.02,223.094 5720.51,223.468 5719.99,223.846C5719.1,224.505 5718.21,225.173 5717.32,225.848C5717.02,226.077 5716.72,226.307 5716.42,226.538C5715.94,226.907 5715.47,227.279 5714.99,227.653C5714.39,228.129 5713.78,228.609 5713.18,229.093L5712.84,229.371L5712.73,229.462L5712.36,229.762L5712.05,230.014C5711.51,230.457 5710.97,230.902 5710.44,231.351L5709.98,231.739L5709.58,232.075L5709.5,232.139L5709.11,232.479C5708.66,232.861 5708.21,233.245 5707.77,233.632C5707.34,234.001 5706.92,234.372 5706.5,234.745C5706.1,235.098 5705.7,235.452 5705.31,235.807C5704.46,236.571 5703.62,237.342 5702.78,238.121C5701.85,238.986 5700.93,239.861 5700.02,240.745C5698.66,242.063 5697.32,243.402 5695.99,244.761C5693.41,247.411 5690.9,250.138 5688.46,252.936C5683.56,258.566 5678.95,264.489 5674.65,270.675L5674.53,270.84L5674.37,271.076C5673.88,271.776 5673.4,272.481 5672.93,273.188C5672.65,273.592 5672.38,273.997 5672.11,274.403C5669.78,277.912 5667.55,281.501 5665.41,285.166L5665.39,285.217L5665.09,285.729C5664.4,286.93 5663.71,288.139 5663.04,289.356L5662.88,289.638L5662.85,289.699L5662.58,290.196L5662.28,290.74C5662.16,290.96 5662.04,291.18 5661.92,291.4C5657.66,299.313 5653.84,307.551 5650.5,316.067L5650.38,316.366L5650.35,316.461C5641.63,338.812 5636.18,363.076 5634.43,388.427C5634.39,389.019 5634.35,389.612 5634.32,390.206C5634.08,393.979 5633.93,397.775 5633.86,401.593C5633.85,402.123 5633.84,402.655 5633.84,403.186C5633.83,404.208 5633.82,405.231 5633.82,406.256L5633.82,406.27L5633.82,806.192L5441.79,806.192L5441.79,22.218L5614.78,22.218L5627.47,128.546L5628.4,127.637L5628.96,127.091L5629.33,126.731L5629.86,126.214C5631.97,124.171 5634.07,122.155 5636.18,120.166C5637.13,119.27 5638.08,118.378 5639.03,117.493C5643.35,113.462 5647.67,109.544 5652,105.739C5658.99,99.597 5666,93.75 5673.03,88.2C5676.07,85.802 5679.11,83.459 5682.16,81.172C5682.67,80.793 5683.18,80.416 5683.68,80.04C5687.52,77.186 5691.37,74.42 5695.23,71.742C5696.81,70.645 5698.39,69.564 5699.98,68.496C5702.01,67.128 5704.05,65.784 5706.09,64.464C5707.56,63.512 5709.03,62.573 5710.51,61.647C5712.01,60.706 5713.51,59.779 5715.01,58.864C5716.2,58.138 5717.4,57.42 5718.59,56.71C5721.38,55.058 5724.17,53.45 5726.97,51.886C5727.49,51.596 5728.01,51.308 5728.53,51.021C5730.46,49.961 5732.38,48.922 5734.31,47.904C5735.03,47.528 5735.74,47.155 5736.45,46.785C5741.4,44.223 5746.37,41.798 5751.38,39.51C5752.91,38.812 5754.44,38.127 5755.98,37.455C5757.78,36.662 5759.6,35.888 5761.41,35.131L5761.77,34.984L5762.36,34.739C5763.19,34.397 5764.02,34.058 5764.85,33.724C5774.63,29.786 5784.54,26.36 5794.63,23.448C5795.24,23.27 5795.86,23.094 5796.48,22.921C5799.65,22.025 5802.85,21.18 5806.06,20.386C5807.7,19.979 5809.35,19.585 5811.01,19.205C5812.1,18.953 5813.2,18.707 5814.3,18.467C5818.31,17.592 5822.35,16.795 5826.41,16.076C5829.82,15.472 5833.26,14.924 5836.71,14.43C5843.56,13.452 5850.49,12.69 5857.51,12.143C5864.36,11.611 5871.3,11.283 5878.34,11.163C5878.99,11.151 5879.64,11.142 5880.3,11.134C5881.72,11.117 5883.14,11.109 5884.56,11.109C5886.66,11.109 5888.75,11.127 5890.84,11.163C5892.52,11.192 5894.19,11.232 5895.86,11.284C5901.21,11.45 5906.53,11.734 5911.81,12.135C5912.52,12.189 5913.23,12.245 5913.93,12.302C5915.42,12.425 5916.91,12.556 5918.39,12.697C5932.42,14.031 5946.19,16.2 5959.63,19.19C5960.14,19.303 5960.65,19.418 5961.16,19.534C5964.09,20.2 5967.01,20.905 5969.9,21.649C5971.73,22.117 5973.54,22.601 5975.35,23.1C5976.05,23.293 5976.75,23.489 5977.45,23.686C5978.76,24.055 5980.06,24.431 5981.35,24.816C5984.01,25.604 5986.65,26.427 5989.28,27.282C5992.78,28.424 5996.27,29.625 5999.72,30.885C6001.43,31.511 6003.14,32.152 6004.84,32.807L6005.61,33.106L6006.26,33.357C6006.78,33.562 6007.31,33.769 6007.83,33.978C6008.65,34.303 6009.47,34.631 6010.28,34.963C6011.16,35.32 6012.04,35.682 6012.91,36.048C6015.3,37.043 6017.67,38.068 6020.02,39.122C6021.98,39.999 6023.92,40.896 6025.86,41.813C6026.95,42.328 6028.03,42.85 6029.12,43.378C6033.83,45.677 6038.48,48.096 6043.06,50.634C6045.04,51.73 6047,52.849 6048.96,53.99C6049.74,54.45 6050.53,54.914 6051.32,55.382C6056.53,58.487 6061.64,61.751 6066.66,65.173C6067.18,65.521 6067.69,65.871 6068.19,66.222C6073.89,70.153 6079.45,74.288 6084.89,78.625C6088.33,81.373 6091.72,84.201 6095.06,87.111C6099.94,91.367 6104.7,95.795 6109.34,100.394C6110.19,101.241 6111.04,102.093 6111.89,102.952C6112.63,103.702 6113.36,104.456 6114.1,105.215C6115.81,106.992 6117.51,108.794 6119.19,110.62C6119.61,111.081 6120.04,111.545 6120.46,112.01L6120.84,112.426L6121.37,113.014C6123.73,115.635 6126.06,118.304 6128.34,121.021L6128.39,121.071L6128.96,121.756C6129.4,122.279 6129.83,122.803 6130.27,123.329C6130.72,123.877 6131.17,124.426 6131.62,124.977C6152.65,150.796 6170.37,180.819 6184.08,214.852C6184.92,216.945 6185.75,219.054 6186.57,221.178C6187.09,222.552 6187.61,223.932 6188.12,225.319L6188.32,225.841L6188.44,226.169C6190.52,231.84 6192.49,237.616 6194.36,243.496C6195.04,245.661 6195.71,247.84 6196.37,250.033L6196.57,250.699L6196.9,251.819C6197.77,254.775 6198.61,257.755 6199.42,260.761C6200.26,263.846 6201.06,266.957 6201.84,270.095C6202.09,271.106 6202.34,272.121 6202.58,273.137C6203.36,276.363 6204.1,279.616 6204.81,282.896C6204.98,283.676 6205.15,284.458 6205.31,285.242C6205.48,286.035 6205.64,286.831 6205.81,287.627C6207.08,293.81 6208.24,300.088 6209.29,306.462C6213,329.073 6215.28,352.886 6216,377.868C6216.12,382.232 6216.2,386.632 6216.23,391.068C6216.24,391.951 6216.24,392.835 6216.24,393.721L6216.25,395.161L6216.25,806.192L6022.63,806.192L6022.63,396.748L6022.63,396.248L6022.63,395.354L6022.62,394.39C6022.61,392.348 6022.57,390.314 6022.52,388.289C6022.49,387.09 6022.45,385.894 6022.41,384.702C6022.37,383.824 6022.34,382.948 6022.3,382.073L6022.27,381.568L6022.25,381.145L6022.24,380.886L6022.22,380.496C6022.02,376.646 6021.75,372.83 6021.41,369.05C6021.3,367.81 6021.18,366.573 6021.06,365.34C6021,364.786 6020.94,364.233 6020.88,363.68C6020.59,361.029 6020.27,358.396 6019.91,355.783C6019.87,355.48 6019.82,355.178 6019.78,354.875L6019.69,354.224C6019.25,351.187 6018.77,348.178 6018.24,345.196L6018.12,344.558L6018.08,344.305C6017.77,342.598 6017.44,340.9 6017.1,339.212L6017.03,338.851L6016.94,338.42C6016.43,335.964 6015.9,333.529 6015.32,331.116L6015.23,330.737L6015.19,330.569C6014.29,326.792 6013.3,323.066 6012.24,319.396L6012.17,319.163L6012.13,319.022C6007.72,303.959 6001.93,289.826 5994.79,276.821C5994.35,276.016 5993.9,275.214 5993.44,274.417C5987.89,264.642 5981.55,255.525 5974.44,247.153C5972.47,244.836 5970.44,242.577 5968.36,240.376L5968.1,240.102L5967.79,239.777C5967.58,239.561 5967.37,239.345 5967.16,239.129C5966.9,238.86 5966.64,238.591 5966.38,238.324C5963.87,235.771 5961.29,233.301 5958.62,230.917C5957.89,230.27 5957.16,229.629 5956.43,228.995C5955.54,228.234 5954.65,227.481 5953.75,226.738C5951.37,224.777 5948.93,222.881 5946.43,221.052C5945.45,220.336 5944.47,219.629 5943.47,218.933C5942.91,218.543 5942.35,218.157 5941.78,217.773C5938.5,215.54 5935.11,213.417 5931.63,211.41C5931.36,211.258 5931.1,211.107 5930.84,210.957C5925.02,207.646 5918.93,204.653 5912.57,201.997C5911.75,201.655 5910.92,201.318 5910.1,200.987C5909.85,200.89 5909.61,200.794 5909.37,200.697C5907.96,200.144 5906.55,199.607 5905.12,199.086C5904.04,198.694 5902.96,198.311 5901.87,197.937L5901.31,197.744L5901.14,197.686C5900.54,197.486 5899.95,197.289 5899.35,197.094C5893.79,195.276 5888.04,193.698 5882.11,192.37C5880.86,192.092 5879.61,191.825 5878.36,191.57C5870.71,190.013 5862.76,188.866 5854.53,188.149C5852.61,187.982 5850.68,187.838 5848.73,187.718C5847.99,187.673 5847.26,187.631 5846.52,187.593C5846.09,187.57 5845.65,187.549 5845.21,187.528L5844.51,187.496C5843.33,187.445 5842.15,187.402 5840.96,187.368C5839.54,187.327 5838.11,187.298 5836.67,187.282C5835.95,187.273 5835.23,187.268 5834.51,187.266L5833.78,187.265L5833.08,187.266ZM3779.45,154.227C3783.82,147.32 3788.28,140.722 3792.81,134.422C3793.96,132.824 3795.12,131.244 3796.28,129.684C3800.75,123.677 3805.29,117.951 3809.91,112.497C3811.65,110.435 3813.4,108.413 3815.17,106.428C3822.92,97.703 3830.87,89.713 3839.01,82.41L3839.4,82.06L3840.09,81.444C3840.61,80.984 3841.13,80.526 3841.65,80.072L3842.23,79.564L3842.3,79.505C3846.12,76.178 3849.99,72.999 3853.89,69.964C3858.54,66.353 3863.24,62.944 3867.99,59.73L3868.34,59.491L3869.05,59.015C3870.59,57.989 3872.13,56.983 3873.67,55.996C3875.68,54.716 3877.69,53.469 3879.72,52.255C3880.67,51.685 3881.62,51.123 3882.57,50.568C3888.13,47.328 3893.76,44.332 3899.46,41.565C3900.27,41.171 3901.08,40.782 3901.9,40.397C3903.38,39.697 3904.86,39.013 3906.35,38.343L3907,38.053L3907.75,37.719C3910.49,36.507 3913.24,35.346 3916.01,34.234C3931.8,27.893 3948.05,23.152 3964.71,19.757C3966.94,19.303 3969.18,18.873 3971.42,18.467C3977.42,17.379 3983.48,16.459 3989.58,15.696C3990.36,15.598 3991.14,15.503 3991.93,15.41C3994.08,15.156 3996.24,14.92 3998.4,14.703C4009.82,13.558 4021.41,12.933 4033.16,12.752C4033.62,12.745 4034.08,12.738 4034.54,12.733L4035.73,12.719C4037.31,12.704 4038.89,12.696 4040.48,12.696L4041.78,12.697C4044.71,12.705 4047.62,12.735 4050.52,12.79C4052.72,12.832 4054.92,12.888 4057.1,12.957C4060.58,13.067 4064.02,13.212 4067.44,13.392C4076.04,13.845 4084.46,14.519 4092.7,15.41C4093.44,15.49 4094.17,15.571 4094.91,15.655C4103.7,16.652 4112.28,17.899 4120.65,19.394C4124.91,20.154 4129.12,20.978 4133.27,21.866C4138.31,22.945 4143.28,24.119 4148.17,25.386C4153.14,26.675 4158.03,28.061 4162.84,29.543C4164.76,30.134 4166.66,30.741 4168.55,31.363C4172.07,32.518 4175.53,33.725 4178.95,34.984C4187.26,38.041 4195.3,41.406 4203.06,45.073C4203.65,45.348 4204.23,45.624 4204.8,45.902C4210.31,48.55 4215.69,51.351 4220.92,54.305C4227.93,58.257 4234.69,62.482 4241.21,66.975C4242.5,67.865 4243.78,68.765 4245.05,69.676C4245.52,70.015 4246,70.356 4246.47,70.697C4250.35,73.522 4254.15,76.446 4257.86,79.467C4260.15,81.338 4262.41,83.246 4264.63,85.192C4266.05,86.431 4267.45,87.685 4268.84,88.954L4269.11,89.196L4269.52,89.577C4275.74,95.308 4281.68,101.344 4287.34,107.681C4294.21,115.381 4300.66,123.526 4306.69,132.106C4306.99,132.538 4307.3,132.971 4307.6,133.405C4308.61,134.865 4309.61,136.338 4310.61,137.824C4318.25,149.285 4325.18,161.486 4331.39,174.408C4331.67,174.991 4331.95,175.576 4332.23,176.162C4333.14,178.089 4334.04,180.032 4334.92,181.99C4335.48,183.247 4336.04,184.51 4336.6,185.78C4342.65,199.683 4347.92,214.362 4352.43,229.797C4353.06,231.988 4353.69,234.195 4354.3,236.417C4354.93,238.741 4355.55,241.081 4356.15,243.437C4356.48,244.732 4356.81,246.032 4357.13,247.337C4357.33,248.131 4357.52,248.927 4357.71,249.725C4358.43,252.726 4359.12,255.754 4359.79,258.807C4360.22,260.786 4360.64,262.775 4361.05,264.776C4362.77,273.211 4364.3,281.839 4365.62,290.657C4366.26,294.937 4366.86,299.261 4367.4,303.629L4367.49,304.357L4367.63,305.499C4367.74,306.365 4367.84,307.232 4367.94,308.101C4368.56,313.353 4369.11,318.668 4369.59,324.044C4370.48,334.077 4371.15,344.327 4371.57,354.79C4371.72,358.433 4371.84,362.103 4371.94,365.798C4372.01,368.868 4372.07,371.956 4372.11,375.062C4372.14,377.883 4372.16,380.719 4372.16,383.568L4372.16,384.052L4372.16,806.192L4178.55,806.192L4178.55,384.052L4178.55,383.605C4178.54,379.914 4178.48,376.244 4178.37,372.598C4178.26,369.04 4178.09,365.505 4177.87,361.996C4177.77,360.366 4177.66,358.742 4177.53,357.124C4177.11,351.74 4176.57,346.42 4175.89,341.175C4175.62,339.135 4175.34,337.106 4175.04,335.089C4174.67,332.669 4174.28,330.265 4173.85,327.881L4173.71,327.064L4173.58,326.368L4173.5,325.958L4173.38,325.28C4172.99,323.226 4172.58,321.187 4172.15,319.163C4171.44,315.81 4170.66,312.499 4169.82,309.231C4169.41,307.595 4168.97,305.97 4168.52,304.357C4168.23,303.318 4167.93,302.284 4167.63,301.254C4167.22,299.855 4166.79,298.465 4166.36,297.085C4165.96,295.817 4165.55,294.556 4165.12,293.304C4164.85,292.502 4164.58,291.703 4164.3,290.907C4163.83,289.579 4163.36,288.26 4162.87,286.951C4160.79,281.398 4158.5,276.021 4155.99,270.84C4155.63,270.094 4155.26,269.352 4154.89,268.614C4154.6,268.029 4154.3,267.446 4154,266.865C4153.44,265.779 4152.87,264.702 4152.28,263.635C4151.89,262.906 4151.48,262.181 4151.08,261.46C4149.76,259.133 4148.4,256.853 4146.98,254.621C4145.15,251.739 4143.24,248.938 4141.24,246.223C4137.5,241.134 4133.45,236.346 4129.1,231.89C4128.55,231.332 4128,230.779 4127.45,230.232L4127.2,229.986L4127,229.796C4124.87,227.71 4122.66,225.702 4120.38,223.775C4118.92,222.535 4117.42,221.328 4115.9,220.156L4115.52,219.867L4115.24,219.659C4114.95,219.436 4114.65,219.214 4114.36,218.993C4114.05,218.768 4113.75,218.544 4113.44,218.322C4112.81,217.862 4112.18,217.408 4111.54,216.959C4109.88,215.797 4108.18,214.674 4106.45,213.591C4106.26,213.469 4106.06,213.348 4105.87,213.227C4105.44,212.959 4105,212.693 4104.56,212.429C4104.07,212.134 4103.58,211.842 4103.08,211.553C4102.61,211.277 4102.13,211.003 4101.65,210.732C4098.8,209.125 4095.86,207.62 4092.84,206.224C4092.4,206.022 4091.96,205.822 4091.52,205.624C4088.29,204.175 4084.95,202.847 4081.52,201.647C4080.42,201.264 4079.32,200.894 4078.2,200.538L4078.09,200.503L4077.92,200.449C4074.2,199.269 4070.37,198.234 4066.43,197.35C4064.83,196.993 4063.22,196.66 4061.59,196.353L4061.52,196.34L4061.35,196.309C4058.98,195.866 4056.57,195.476 4054.11,195.14C4053.43,195.047 4052.76,194.959 4052.07,194.875L4051.58,194.814L4051.17,194.766C4050.48,194.685 4049.79,194.608 4049.1,194.535C4047.83,194.402 4046.55,194.283 4045.26,194.179C4044.82,194.143 4044.37,194.109 4043.93,194.077C4041.08,193.869 4038.17,193.73 4035.22,193.662L4034.62,193.649C4034.41,193.645 4034.21,193.641 4034.01,193.638L4033.4,193.629L4032.82,193.622L4032.79,193.622L4032.25,193.618C4032.03,193.616 4031.8,193.615 4031.57,193.614L4030.96,193.613C4029.67,193.613 4028.38,193.627 4027.1,193.654C4026.25,193.672 4025.41,193.697 4024.56,193.727C4023.69,193.758 4022.82,193.795 4021.96,193.839C4021,193.887 4020.04,193.944 4019.08,194.008L4018.87,194.022L4018.61,194.04L4018.27,194.064L4018.25,194.066C4017.8,194.098 4017.35,194.132 4016.9,194.168C4014.91,194.327 4012.93,194.52 4010.97,194.747C4004.93,195.443 3999.05,196.454 3993.32,197.762C3992.97,197.843 3992.61,197.926 3992.26,198.009C3991.65,198.152 3991.05,198.299 3990.44,198.448C3990.17,198.516 3989.9,198.585 3989.62,198.654C3989.22,198.755 3988.83,198.858 3988.43,198.962L3988.11,199.047L3987.96,199.086L3987.62,199.177C3986.41,199.5 3985.21,199.836 3984.02,200.186C3982.89,200.52 3981.76,200.866 3980.63,201.224C3980,201.424 3979.38,201.628 3978.75,201.836L3978.49,201.924L3977.96,202.101C3977.66,202.202 3977.36,202.304 3977.07,202.407C3975.97,202.785 3974.88,203.175 3973.8,203.576C3972.94,203.896 3972.08,204.223 3971.22,204.557C3970.22,204.951 3969.22,205.354 3968.22,205.768C3967.4,206.112 3966.57,206.462 3965.76,206.82C3965.56,206.905 3965.36,206.991 3965.17,207.078C3964.26,207.477 3963.36,207.885 3962.47,208.302C3960.82,209.068 3959.19,209.861 3957.58,210.682C3955.88,211.542 3954.21,212.431 3952.56,213.349C3950.12,214.708 3947.72,216.129 3945.37,217.612C3944.97,217.86 3944.58,218.109 3944.19,218.36L3943.81,218.608L3943.46,218.832C3942.11,219.711 3940.77,220.61 3939.45,221.53C3938.84,221.953 3938.23,222.381 3937.63,222.813C3937.16,223.151 3936.69,223.491 3936.22,223.833C3935.02,224.718 3933.83,225.619 3932.64,226.538C3930.81,227.967 3929,229.436 3927.23,230.944C3926.94,231.19 3926.65,231.437 3926.37,231.685C3924.62,233.193 3922.9,234.739 3921.22,236.322C3920.85,236.675 3920.47,237.03 3920.1,237.386C3919.67,237.794 3919.25,238.205 3918.83,238.617C3918.43,239.009 3918.03,239.404 3917.63,239.8L3917.25,240.18C3916.9,240.533 3916.55,240.888 3916.2,241.245C3915.72,241.735 3915.25,242.228 3914.78,242.723C3914.41,243.107 3914.05,243.493 3913.68,243.881C3912.97,244.639 3912.27,245.404 3911.58,246.175C3911.2,246.588 3910.84,247.003 3910.47,247.42L3910.28,247.635L3910.12,247.812C3909.4,248.628 3908.69,249.452 3907.99,250.282C3907.71,250.616 3907.43,250.952 3907.15,251.288C3906.59,251.96 3906.03,252.636 3905.49,253.317C3905.25,253.606 3905.02,253.896 3904.79,254.187C3903.79,255.441 3902.81,256.71 3901.84,257.995C3901.36,258.629 3900.89,259.266 3900.42,259.907L3900.14,260.29L3899.97,260.523C3898.56,262.461 3897.19,264.431 3895.85,266.432C3895.65,266.732 3895.45,267.032 3895.26,267.333C3893.94,269.334 3892.66,271.366 3891.41,273.426C3890.94,274.208 3890.47,274.994 3890.01,275.783C3889.75,276.228 3889.49,276.674 3889.23,277.121C3888.94,277.627 3888.65,278.135 3888.36,278.645C3888.02,279.256 3887.68,279.87 3887.34,280.485C3886.26,282.46 3885.21,284.459 3884.19,286.481C3884,286.863 3883.81,287.245 3883.62,287.627C3882.49,289.9 3881.41,292.2 3880.36,294.528C3880.23,294.825 3880.09,295.122 3879.96,295.42C3879.65,296.125 3879.34,296.833 3879.03,297.543C3878.01,299.917 3877.03,302.318 3876.1,304.744C3875.62,305.997 3875.14,307.258 3874.68,308.524C3874.51,308.989 3874.34,309.454 3874.18,309.921C3872.54,314.527 3871.05,319.218 3869.71,323.984C3869.27,325.538 3868.85,327.1 3868.45,328.669C3868.07,330.124 3867.71,331.585 3867.37,333.052L3867.31,333.3L3867.1,334.168C3864.85,343.957 3863.21,354.019 3862.24,364.274C3861.76,369.302 3861.43,374.376 3861.27,379.487C3861.23,380.715 3861.2,381.945 3861.18,383.178C3861.16,384.525 3861.15,385.874 3861.15,387.226L3861.15,806.192L3667.54,806.192L3667.54,387.226C3667.54,385.532 3667.52,383.842 3667.49,382.153C3667.48,381.324 3667.46,380.495 3667.44,379.666C3667.34,375.688 3667.15,371.727 3666.89,367.788C3666.55,362.658 3666.06,357.566 3665.45,352.522C3665.05,349.26 3664.59,346.018 3664.07,342.8C3663.85,341.387 3663.61,339.978 3663.36,338.573C3662.92,336.083 3662.45,333.607 3661.94,331.148C3660.92,326.26 3659.77,321.437 3658.49,316.688C3658.02,314.95 3657.53,313.222 3657.02,311.505L3656.81,310.782L3656.55,309.921C3656.19,308.747 3655.83,307.579 3655.45,306.416C3654.93,304.791 3654.39,303.177 3653.84,301.573L3653.68,301.13L3653.59,300.871L3653.31,300.072L3653.17,299.666C3652.95,299.067 3652.74,298.469 3652.52,297.873C3651.63,295.441 3650.7,293.035 3649.73,290.657L3649.68,290.531C3647.03,284.044 3644.09,277.764 3640.86,271.723C3639.64,269.456 3638.39,267.224 3637.09,265.026L3636.96,264.809L3636.71,264.385C3635.69,262.681 3634.66,260.999 3633.59,259.339C3633.37,258.999 3633.15,258.66 3632.93,258.321C3631.38,255.94 3629.78,253.605 3628.12,251.321C3627.65,250.661 3627.16,250.006 3626.68,249.354L3626.64,249.301L3626.54,249.173C3624.67,246.676 3622.74,244.241 3620.74,241.872C3619.34,240.218 3617.92,238.596 3616.46,237.007C3615.68,236.162 3614.9,235.325 3614.11,234.499L3614.1,234.493L3613.92,234.306C3612.99,233.332 3612.04,232.372 3611.08,231.426C3608.91,229.296 3606.68,227.235 3604.4,225.246C3601.87,223.052 3599.27,220.945 3596.6,218.932C3596.3,218.71 3596,218.489 3595.71,218.269C3594.22,217.172 3592.72,216.103 3591.19,215.063C3590.97,214.91 3590.74,214.758 3590.51,214.606L3590.25,214.426L3589.83,214.149C3589.18,213.716 3588.52,213.288 3587.86,212.865C3587.53,212.653 3587.19,212.441 3586.86,212.231C3585.99,211.685 3585.11,211.147 3584.22,210.619C3583.49,210.181 3582.75,209.75 3582.01,209.325C3580.16,208.27 3578.28,207.254 3576.37,206.28C3575.94,206.059 3575.51,205.841 3575.08,205.624L3574.79,205.484L3574.71,205.445L3574.32,205.25L3574.05,205.119C3573.69,204.942 3573.32,204.766 3572.96,204.592C3572.73,204.482 3572.5,204.373 3572.26,204.265C3571.94,204.111 3571.61,203.958 3571.28,203.806C3570.83,203.601 3570.39,203.398 3569.94,203.197C3568.96,202.758 3567.97,202.33 3566.97,201.913C3566.63,201.767 3566.28,201.623 3565.93,201.48L3565.55,201.324L3565.43,201.274C3562.03,199.897 3558.55,198.643 3554.99,197.515L3554.83,197.462L3554.47,197.35C3553.36,197.006 3552.25,196.673 3551.13,196.353L3551.06,196.331C3550.39,196.142 3549.73,195.958 3549.07,195.779C3542.68,194.055 3536.04,192.729 3529.14,191.83C3528.74,191.778 3528.35,191.728 3527.95,191.679C3527.3,191.599 3526.64,191.523 3525.99,191.45L3525.4,191.386C3525.04,191.347 3524.67,191.31 3524.3,191.273C3523.49,191.192 3522.68,191.117 3521.86,191.048L3521.26,190.998C3520.64,190.948 3520.02,190.901 3519.4,190.858C3517.64,190.735 3515.87,190.639 3514.08,190.57C3513.25,190.538 3512.42,190.512 3511.58,190.491C3510.35,190.461 3509.12,190.444 3507.87,190.44L3507.25,190.439C3505.23,190.439 3503.23,190.474 3501.24,190.543C3500.91,190.554 3500.58,190.567 3500.25,190.58C3499.62,190.606 3498.99,190.635 3498.37,190.667C3497.51,190.712 3496.65,190.763 3495.8,190.82L3495.77,190.822L3495.27,190.856C3494.12,190.937 3492.97,191.03 3491.83,191.134C3491.34,191.179 3490.86,191.225 3490.38,191.273C3489.93,191.318 3489.48,191.365 3489.03,191.415L3488.7,191.45L3488.25,191.501C3487.73,191.561 3487.2,191.623 3486.68,191.687C3486.04,191.767 3485.4,191.85 3484.76,191.936C3484.02,192.037 3483.28,192.143 3482.55,192.254C3482.17,192.31 3481.8,192.367 3481.43,192.426C3480.74,192.534 3480.06,192.646 3479.38,192.762C3478.13,192.976 3476.89,193.204 3475.66,193.447C3475.36,193.504 3475.07,193.563 3474.78,193.622C3472.54,194.075 3470.32,194.576 3468.13,195.122C3467.7,195.229 3467.27,195.338 3466.84,195.449C3464.71,195.999 3462.61,196.593 3460.53,197.229C3459.82,197.446 3459.11,197.668 3458.41,197.894C3457.74,198.11 3457.07,198.331 3456.4,198.556L3456.09,198.662L3455.85,198.745C3454.58,199.18 3453.32,199.63 3452.07,200.097C3451.01,200.491 3449.96,200.896 3448.92,201.311C3447.98,201.685 3447.05,202.067 3446.13,202.458L3445.86,202.57L3445.41,202.767C3444.79,203.032 3444.17,203.302 3443.56,203.576L3443.4,203.645C3437.23,206.405 3431.31,209.564 3425.64,213.088C3425.22,213.354 3424.79,213.622 3424.37,213.892C3423.08,214.714 3421.8,215.556 3420.53,216.416C3420.3,216.573 3420.07,216.73 3419.84,216.888C3419.3,217.261 3418.76,217.638 3418.22,218.018C3417.25,218.705 3416.29,219.403 3415.34,220.112C3411.19,223.199 3407.19,226.496 3403.36,229.986C3403.16,230.169 3402.96,230.352 3402.76,230.536C3400.77,232.368 3398.83,234.253 3396.93,236.189L3396.72,236.392L3396.49,236.638L3396.35,236.776L3395.98,237.161C3395.55,237.602 3395.13,238.045 3394.71,238.49C3393.49,239.781 3392.29,241.093 3391.11,242.425L3390.88,242.687L3390.58,243.021C3390.02,243.663 3389.46,244.31 3388.9,244.962C3388.1,245.911 3387.3,246.87 3386.51,247.838C3386.01,248.445 3385.52,249.056 3385.03,249.671C3384.47,250.387 3383.91,251.108 3383.35,251.834C3382.58,252.838 3381.82,253.852 3381.07,254.875C3379.37,257.183 3377.73,259.538 3376.13,261.939C3375.62,262.717 3375.11,263.499 3374.6,264.286C3371.65,268.882 3368.88,273.637 3366.3,278.532C3365.32,280.384 3364.37,282.257 3363.45,284.149C3362.48,286.124 3361.55,288.12 3360.64,290.135C3360.28,290.939 3359.93,291.746 3359.58,292.556C3359.4,292.955 3359.23,293.354 3359.06,293.753L3359.04,293.796L3358.88,294.173C3357.48,297.468 3356.16,300.814 3354.92,304.205C3353.91,306.981 3352.94,309.787 3352.03,312.623L3351.92,312.96L3351.66,313.797C3351.29,314.976 3350.93,316.159 3350.57,317.348C3349.56,320.762 3348.62,324.214 3347.76,327.701C3347.08,330.446 3346.44,333.211 3345.86,335.996C3345.28,338.758 3344.75,341.538 3344.27,344.336C3343.76,347.235 3343.31,350.152 3342.91,353.085C3342.78,354.079 3342.65,355.075 3342.53,356.072C3342.09,359.605 3341.73,363.16 3341.44,366.734C3340.89,373.505 3340.62,380.345 3340.62,387.226L3340.62,806.192L3147,806.192L3147,22.218L3326.33,22.218L3340.62,117.437L3340.86,116.973C3341.11,116.49 3341.37,116.009 3341.62,115.531C3342.3,114.27 3342.99,113.023 3343.68,111.789C3343.87,111.461 3344.06,111.133 3344.25,110.807C3344.41,110.515 3344.58,110.223 3344.75,109.933C3345.12,109.311 3345.48,108.692 3345.85,108.076C3346.2,107.499 3346.54,106.924 3346.9,106.353C3348.14,104.324 3349.43,102.332 3350.74,100.376C3351.75,98.882 3352.77,97.409 3353.81,95.958C3354.75,94.656 3355.7,93.372 3356.66,92.104C3357.4,91.133 3358.14,90.171 3358.9,89.219C3360.61,87.067 3362.36,84.965 3364.15,82.913C3366.24,80.511 3368.4,78.176 3370.6,75.908C3370.98,75.515 3371.36,75.124 3371.75,74.735C3374.94,71.507 3378.24,68.415 3381.63,65.456L3381.96,65.173L3382.16,65C3382.61,64.612 3383.06,64.227 3383.51,63.844L3384.17,63.283L3384.4,63.087C3385.25,62.381 3386.09,61.683 3386.95,60.993C3390.91,57.787 3394.99,54.749 3399.17,51.876C3399.61,51.569 3400.06,51.263 3400.51,50.959C3401.85,50.053 3403.21,49.163 3404.57,48.289C3405.58,47.641 3406.59,47.002 3407.61,46.372L3408.43,45.87C3409.01,45.515 3409.6,45.163 3410.18,44.814C3415.53,41.616 3421.01,38.659 3426.6,35.936C3427.76,35.374 3428.91,34.822 3430.08,34.279C3430.47,34.093 3430.87,33.908 3431.27,33.724L3432.14,33.326C3433.43,32.739 3434.73,32.165 3436.02,31.603C3437.03,31.168 3438.04,30.739 3439.05,30.318C3448.58,26.343 3458.34,22.992 3468.2,20.219C3469.35,19.894 3470.51,19.576 3471.67,19.266C3475.87,18.144 3480.09,17.126 3484.32,16.207C3485.15,16.025 3485.99,15.847 3486.83,15.673C3487.64,15.504 3488.46,15.339 3489.27,15.177C3490.04,15.023 3490.82,14.872 3491.59,14.725C3492.89,14.479 3494.18,14.242 3495.47,14.014C3500.68,13.096 3505.89,12.326 3511.07,11.697L3511.96,11.589L3512.58,11.517C3515.82,11.141 3519.04,10.82 3522.26,10.552C3524.01,10.406 3525.76,10.276 3527.51,10.161C3528.88,10.071 3530.24,9.991 3531.6,9.921C3536.77,9.652 3541.88,9.522 3546.93,9.522C3547.44,9.522 3547.95,9.523 3548.47,9.526C3552.71,9.545 3556.95,9.642 3561.18,9.821C3568.26,10.12 3575.33,10.647 3582.37,11.416C3583.07,11.492 3583.77,11.572 3584.47,11.653C3585.88,11.817 3587.28,11.99 3588.69,12.173C3589.61,12.294 3590.53,12.419 3591.46,12.548L3591.71,12.583L3592.51,12.697C3596.13,13.218 3599.74,13.804 3603.33,14.46C3606.39,15.016 3609.43,15.623 3612.46,16.28L3613.19,16.439L3613.9,16.595C3616.65,17.207 3619.39,17.861 3622.12,18.558L3622.73,18.714L3623.08,18.805C3625.31,19.383 3627.53,19.989 3629.74,20.625C3631.83,21.229 3633.93,21.859 3636.01,22.516C3636.68,22.729 3637.36,22.944 3638.03,23.163C3638.66,23.366 3639.28,23.572 3639.91,23.781C3641.95,24.462 3643.98,25.17 3646.01,25.904C3646.8,26.19 3647.58,26.479 3648.37,26.773C3654.16,28.943 3659.88,31.335 3665.5,33.958C3666.22,34.293 3666.94,34.633 3667.65,34.976C3669.12,35.678 3670.57,36.396 3672.03,37.13L3672.56,37.4L3673.39,37.828C3674.05,38.163 3674.7,38.501 3675.34,38.843C3676.48,39.441 3677.61,40.049 3678.73,40.667C3680.59,41.684 3682.43,42.729 3684.26,43.802C3685.46,44.507 3686.65,45.224 3687.84,45.952L3688.78,46.529C3694.87,50.303 3700.8,54.398 3706.57,58.828C3709.18,60.84 3711.77,62.921 3714.31,65.072L3714.8,65.488L3715.51,66.093C3719.91,69.872 3724.2,73.864 3728.36,78.077C3728.81,78.533 3729.26,78.992 3729.7,79.453L3729.75,79.505L3729.81,79.564C3731.11,80.904 3732.39,82.266 3733.66,83.649C3735,85.098 3736.31,86.57 3737.62,88.067L3738,88.51C3738.84,89.484 3739.68,90.468 3740.51,91.463L3740.67,91.65L3741.04,92.104C3741.52,92.681 3742,93.26 3742.47,93.844C3743.39,94.971 3744.29,96.111 3745.19,97.264C3746.84,99.373 3748.45,101.526 3750.04,103.723C3750.32,104.101 3750.59,104.481 3750.86,104.863C3751.19,105.326 3751.52,105.792 3751.85,106.26C3752.46,107.124 3753.06,107.995 3753.66,108.872C3754.18,109.625 3754.69,110.382 3755.19,111.145C3755.78,112.02 3756.36,112.902 3756.93,113.79C3757.14,114.109 3757.34,114.429 3757.55,114.75C3759.1,117.185 3760.63,119.669 3762.12,122.202C3762.49,122.826 3762.86,123.453 3763.22,124.083C3763.58,124.714 3763.95,125.347 3764.31,125.983C3766.43,129.738 3768.49,133.597 3770.47,137.564C3770.85,138.322 3771.22,139.083 3771.59,139.849L3771.77,140.213L3772.06,140.807C3772.47,141.664 3772.88,142.526 3773.29,143.393C3773.82,144.53 3774.35,145.675 3774.87,146.829C3775.2,147.566 3775.54,148.306 3775.87,149.05C3776.06,149.486 3776.25,149.924 3776.44,150.363C3777.18,152.066 3777.91,153.786 3778.63,155.525L3779.45,154.227ZM3074,115.85L2713.76,615.753L3077.18,615.753L3077.18,806.192L2418.58,806.192L2418.58,725.255L2793.11,199.961L2447.14,199.961L2447.14,23.805L3074,23.805L3074,115.85ZM1332.28,195.21C1331.74,195.214 1331.19,195.22 1330.65,195.229C1329.75,195.241 1328.85,195.258 1327.95,195.28C1327.28,195.296 1326.61,195.314 1325.94,195.335C1322.53,195.44 1319.13,195.608 1315.75,195.84C1311.28,196.146 1306.84,196.565 1302.43,197.099C1301.57,197.203 1300.71,197.311 1299.86,197.424C1298.18,197.645 1296.51,197.882 1294.84,198.137C1292.57,198.484 1290.31,198.862 1288.06,199.273C1285.77,199.691 1283.48,200.144 1281.21,200.63C1278.01,201.317 1274.83,202.071 1271.68,202.894L1271.14,203.034L1271.01,203.07L1270.59,203.18L1270.32,203.254C1269.37,203.509 1268.42,203.771 1267.47,204.038C1266.89,204.203 1266.31,204.37 1265.73,204.54C1265.36,204.649 1264.99,204.759 1264.62,204.87C1263.88,205.091 1263.14,205.316 1262.4,205.545C1261.69,205.767 1260.97,205.993 1260.26,206.224C1259.66,206.419 1259.05,206.617 1258.45,206.819L1258.08,206.942L1257.96,206.981L1257.54,207.123L1257.35,207.19C1256.56,207.458 1255.77,207.731 1254.99,208.009C1254.41,208.215 1253.83,208.423 1253.25,208.634C1252.81,208.796 1252.37,208.958 1251.92,209.123L1251.69,209.209L1251.17,209.407C1250.56,209.636 1249.96,209.867 1249.36,210.101C1248.76,210.334 1248.17,210.569 1247.57,210.807C1246.69,211.162 1245.81,211.522 1244.93,211.889C1244.29,212.161 1243.64,212.435 1243,212.714L1242.83,212.784L1242.73,212.828L1242.32,213.008L1242.29,213.021C1241.84,213.216 1241.4,213.413 1240.95,213.612C1239.96,214.054 1238.97,214.505 1237.99,214.965C1237.42,215.231 1236.86,215.5 1236.29,215.772C1235.94,215.939 1235.6,216.107 1235.25,216.276C1235.03,216.385 1234.81,216.496 1234.58,216.606C1234.13,216.831 1233.67,217.057 1233.22,217.284C1230.88,218.468 1228.57,219.701 1226.28,220.987L1225.83,221.244L1225.63,221.352C1224.77,221.847 1223.9,222.35 1223.04,222.859C1221.62,223.696 1220.23,224.553 1218.84,225.431C1218.5,225.642 1218.17,225.854 1217.84,226.068C1217.6,226.222 1217.36,226.377 1217.12,226.533L1216.79,226.751L1216.49,226.943C1215.43,227.637 1214.38,228.343 1213.34,229.062C1212.52,229.632 1211.7,230.209 1210.88,230.794C1210.59,231.004 1210.3,231.215 1210.01,231.426C1209.15,232.049 1208.3,232.681 1207.46,233.321L1207.22,233.504L1206.89,233.754L1206.77,233.844L1206.67,233.92C1206.1,234.359 1205.53,234.802 1204.97,235.249L1204.57,235.565L1204.23,235.834C1203.38,236.514 1202.54,237.203 1201.7,237.901C1201.38,238.168 1201.06,238.436 1200.74,238.706L1200.67,238.766L1200.27,239.106C1200.02,239.326 1199.76,239.547 1199.5,239.77C1198.28,240.824 1197.08,241.9 1195.89,242.995L1195.62,243.241L1195.6,243.264L1195.21,243.625L1194.92,243.901C1194.72,244.081 1194.53,244.261 1194.34,244.442C1193.55,245.191 1192.77,245.948 1191.99,246.715C1191.78,246.92 1191.58,247.125 1191.37,247.331C1189.69,249.007 1188.05,250.727 1186.43,252.491C1185.75,253.244 1185.06,254.005 1184.39,254.774L1184.15,255.052L1184,255.22C1182.68,256.732 1181.39,258.276 1180.12,259.852C1179.77,260.284 1179.42,260.719 1179.08,261.157L1178.99,261.267L1178.91,261.369C1176.81,264.043 1174.78,266.807 1172.82,269.661L1172.76,269.759L1172.53,270.095C1172.12,270.684 1171.73,271.278 1171.33,271.875L1171.1,272.219L1170.99,272.394C1169.09,275.294 1167.26,278.285 1165.51,281.367C1165.3,281.731 1165.09,282.097 1164.89,282.464C1164.6,282.99 1164.3,283.518 1164.02,284.049L1163.98,284.108L1163.74,284.555C1161.6,288.514 1159.59,292.62 1157.71,296.875C1157.56,297.206 1157.42,297.539 1157.27,297.873C1156.73,299.11 1156.21,300.359 1155.69,301.621C1155.07,303.142 1154.46,304.682 1153.87,306.24C1153.63,306.886 1153.39,307.534 1153.15,308.186C1152.84,309.046 1152.53,309.91 1152.22,310.781L1152,311.404C1151.93,311.628 1151.85,311.852 1151.77,312.076C1151.6,312.59 1151.42,313.105 1151.25,313.622C1151.15,313.934 1151.05,314.246 1150.94,314.559C1150.26,316.643 1149.61,318.759 1148.98,320.905C1147.56,325.777 1146.29,330.809 1145.18,336.004C1144.61,338.655 1144.08,341.349 1143.59,344.085C1143.5,344.606 1143.41,345.129 1143.32,345.653C1143.12,346.813 1142.93,347.979 1142.75,349.154C1142.67,349.622 1142.6,350.092 1142.53,350.563C1142.38,351.529 1142.24,352.501 1142.11,353.478C1141.74,356.092 1141.42,358.743 1141.13,361.431C1140.84,364.135 1140.58,366.876 1140.37,369.655C1140.25,371.149 1140.14,372.654 1140.05,374.17C1139.98,375.308 1139.91,376.452 1139.86,377.603C1139.76,379.46 1139.68,381.333 1139.62,383.223C1139.6,384.066 1139.57,384.913 1139.55,385.762C1139.53,386.858 1139.51,387.959 1139.49,389.065C1139.47,390.558 1139.46,392.061 1139.46,393.574L1139.46,806.192L945.847,806.192L945.847,23.805L1125.18,23.805L1139.46,114.263L1140.17,113.133C1140.41,112.747 1140.65,112.363 1140.89,111.981C1142.85,108.903 1144.83,105.91 1146.82,103C1147.74,101.665 1148.66,100.348 1149.58,99.047C1150.54,97.694 1151.51,96.36 1152.48,95.043L1153.22,94.045C1153.81,93.255 1154.4,92.472 1154.99,91.696C1155.53,90.985 1156.07,90.279 1156.62,89.579C1157.03,89.044 1157.45,88.512 1157.87,87.983C1158.88,86.705 1159.89,85.446 1160.91,84.206L1161.48,83.52L1161.8,83.129C1162.29,82.544 1162.77,81.963 1163.26,81.386C1164.25,80.221 1165.24,79.073 1166.23,77.942C1168.59,75.253 1170.97,72.659 1173.38,70.156C1181.82,61.369 1190.52,53.701 1199.45,47.017C1201.41,45.552 1203.37,44.135 1205.35,42.763L1205.54,42.63L1205.98,42.326C1209.73,39.746 1213.52,37.329 1217.34,35.066C1217.97,34.692 1218.6,34.323 1219.23,33.958L1219.96,33.535L1220.33,33.326C1221.39,32.723 1222.45,32.132 1223.52,31.552C1225.84,30.288 1228.16,29.078 1230.51,27.92L1231.21,27.575L1231.43,27.468C1243.03,21.8 1254.89,17.393 1266.92,13.987C1269.06,13.382 1271.21,12.809 1273.36,12.265C1280.13,10.552 1286.96,9.138 1293.82,7.979L1294.14,7.926L1294.75,7.824C1295.18,7.753 1295.6,7.684 1296.03,7.616L1296.9,7.476L1297.62,7.365C1302.39,6.624 1307.17,6.002 1311.97,5.483C1312.73,5.402 1313.48,5.323 1314.23,5.246C1314.97,5.172 1315.7,5.1 1316.43,5.03C1317.12,4.965 1317.8,4.903 1318.48,4.842C1326.95,4.087 1335.44,3.631 1343.92,3.392L1344.23,3.383L1344.64,3.372C1348.86,3.259 1353.07,3.198 1357.27,3.181C1358.2,3.176 1359.12,3.174 1360.05,3.174C1361,3.174 1361.95,3.178 1362.9,3.187L1363.84,3.197C1364.24,3.202 1364.64,3.208 1365.04,3.214C1377.15,3.408 1389.17,4.306 1401,5.838C1401.82,5.945 1402.65,6.054 1403.47,6.167L1404.11,6.256L1405.04,6.386L1405.55,6.46C1407.17,6.692 1408.78,6.936 1410.38,7.191C1411.46,7.362 1412.53,7.538 1413.6,7.718C1422.42,9.212 1431.12,11.053 1439.64,13.213L1440.22,13.361L1441.03,13.57C1441.75,13.755 1442.47,13.943 1443.18,14.133L1443.73,14.279L1444.51,14.487C1445.54,14.765 1446.56,15.047 1447.59,15.334C1448.56,15.606 1449.53,15.883 1450.49,16.164C1454.2,17.241 1457.87,18.378 1461.5,19.572C1462.11,19.775 1462.73,19.98 1463.34,20.186C1463.95,20.39 1464.55,20.594 1465.15,20.801C1466.2,21.161 1467.25,21.526 1468.29,21.895C1471.93,23.185 1475.52,24.533 1479.06,25.936C1480.22,26.397 1481.38,26.863 1482.53,27.335C1483.25,27.629 1483.96,27.925 1484.67,28.223C1485.48,28.564 1486.3,28.909 1487.1,29.256C1494.7,32.523 1502.04,36.046 1509.07,39.796C1509.49,40.018 1509.9,40.24 1510.31,40.463C1511.01,40.838 1511.7,41.215 1512.38,41.594L1512.89,41.874L1513.61,42.274C1514.29,42.656 1514.97,43.041 1515.65,43.428C1516.38,43.839 1517.09,44.253 1517.81,44.67C1520.07,45.99 1522.3,47.334 1524.49,48.702C1525.01,49.022 1525.52,49.344 1526.03,49.668C1526.5,49.967 1526.97,50.267 1527.43,50.568C1528.17,51.042 1528.9,51.519 1529.63,51.998C1530.39,52.498 1531.14,53.001 1531.89,53.506C1532.6,53.985 1533.3,54.465 1534,54.948C1535.54,56.019 1537.07,57.101 1538.57,58.195C1539.16,58.625 1539.74,59.057 1540.33,59.491C1542.55,61.149 1544.72,62.832 1546.84,64.539C1547.62,65.167 1548.39,65.799 1549.15,66.434C1549.73,66.917 1550.31,67.403 1550.88,67.891C1553.42,70.055 1555.88,72.254 1558.23,74.487C1558.6,74.832 1558.96,75.178 1559.32,75.525C1559.83,76.013 1560.33,76.502 1560.82,76.993L1561.1,77.261L1561.6,77.763L1474.32,245.984C1472.1,244.127 1469.9,242.319 1467.71,240.561C1465.95,239.155 1464.2,237.782 1462.45,236.44C1458.59,233.488 1454.74,230.69 1450.86,228.048C1450.35,227.7 1449.84,227.354 1449.32,227.01L1448.42,226.408L1448.33,226.346C1440.84,221.397 1433.24,217.023 1425.31,213.235C1425.02,213.098 1424.74,212.961 1424.45,212.826C1418.03,209.8 1411.39,207.157 1404.43,204.902L1403.94,204.743L1403.83,204.708C1403.14,204.487 1402.44,204.27 1401.75,204.056L1401.58,204.006C1398.26,202.992 1394.86,202.064 1391.37,201.224L1391.21,201.186L1390.95,201.122C1388.12,200.447 1385.23,199.829 1382.28,199.268C1375.55,197.988 1368.5,197.008 1361.05,196.331C1360.18,196.252 1359.31,196.177 1358.43,196.107C1357.53,196.034 1356.63,195.966 1355.72,195.903C1355.18,195.865 1354.64,195.829 1354.09,195.794C1352.6,195.699 1351.08,195.614 1349.55,195.542C1348.03,195.47 1346.48,195.409 1344.92,195.359L1344.84,195.356L1344.64,195.35C1344.08,195.333 1343.52,195.317 1342.95,195.303C1342.61,195.295 1342.27,195.286 1341.93,195.279C1339.99,195.236 1338.03,195.211 1336.04,195.203L1335.4,195.201L1334.66,195.2L1333.47,195.202L1332.28,195.21ZM4905.39,177.743C4776.84,177.743 4673.69,265.028 4673.69,414.205C4673.69,563.382 4776.84,652.253 4905.39,652.253L4906.28,652.252C5209.8,651.328 5209.8,178.669 4906.28,177.744L4905.39,177.743ZM433.249,193.613C293.593,193.613 211.07,293.593 211.07,415.792C211.07,537.99 301.528,637.971 433.249,637.971L434.02,637.969C565.322,637.58 655.427,537.751 655.427,415.792C655.427,293.832 573.226,194.004 434.066,193.614L433.249,193.613ZM1974.58,171.397C1970.49,171.413 1966.44,171.506 1962.41,171.676L1962.41,171.676L1962.04,171.693C1960.15,171.775 1958.27,171.874 1956.4,171.99C1947.42,172.548 1938.61,173.496 1930,174.837C1927.03,175.299 1924.08,175.808 1921.16,176.362C1920.35,176.515 1919.55,176.672 1918.74,176.832C1917.39,177.102 1916.04,177.382 1914.7,177.672C1913.56,177.917 1912.44,178.168 1911.31,178.427C1910.75,178.557 1910.18,178.689 1909.62,178.824C1908.12,179.18 1906.62,179.549 1905.14,179.93C1902.52,180.603 1899.92,181.316 1897.34,182.069C1896.62,182.28 1895.9,182.494 1895.18,182.711C1870.47,190.185 1847.89,201.363 1828.22,216.244C1827.54,216.758 1826.86,217.277 1826.19,217.8C1825.44,218.386 1824.69,218.977 1823.94,219.574C1821.34,221.657 1818.8,223.807 1816.31,226.025L1816.16,226.157C1815.96,226.331 1815.77,226.505 1815.58,226.68L1815.35,226.886L1815.04,227.164C1814.32,227.819 1813.6,228.479 1812.89,229.145C1806.06,235.537 1799.67,242.459 1793.76,249.912C1793.16,250.669 1792.57,251.431 1791.98,252.198C1791.77,252.472 1791.56,252.747 1791.35,253.022C1791.11,253.339 1790.87,253.657 1790.63,253.976C1790.36,254.334 1790.09,254.692 1789.83,255.052C1789.49,255.509 1789.15,255.968 1788.82,256.428C1788.02,257.539 1787.22,258.66 1786.44,259.791C1786.05,260.353 1785.66,260.917 1785.28,261.484C1784.37,262.819 1783.48,264.17 1782.6,265.535L1782.44,265.783L1782.18,266.2C1780.5,268.833 1778.88,271.52 1777.31,274.261C1776.32,275.998 1775.35,277.757 1774.4,279.537L1774.23,279.856L1774.09,280.123L1773.96,280.359C1772.37,283.375 1770.85,286.453 1769.38,289.595C1768.66,291.152 1767.95,292.726 1767.26,294.315C1767.04,294.808 1766.83,295.303 1766.62,295.8C1765.91,297.453 1765.22,299.123 1764.55,300.809C1763.93,302.358 1763.33,303.92 1762.74,305.497L1762.61,305.856L1762.53,306.066C1762.33,306.606 1762.13,307.148 1761.94,307.691L1761.79,308.102L1761.64,308.524C1761.5,308.912 1761.36,309.301 1761.23,309.69C1760.97,310.42 1760.72,311.153 1760.47,311.888L1760.41,312.076L1760.22,312.623C1760.04,313.17 1759.86,313.719 1759.68,314.27C1758.93,316.561 1758.21,318.879 1757.52,321.225C1757.42,321.574 1757.32,321.924 1757.22,322.274C1757.08,322.763 1756.94,323.254 1756.8,323.746L2178.94,323.746C2166.79,226.543 2093.59,175.853 1989.95,171.676L1989.95,171.676L1989.88,171.674L1988.67,171.628L1988.67,171.628L1988.67,171.628L1988.5,171.621L1987.4,171.583L1987.4,171.583L1987.4,171.583L1987.12,171.575L1986.12,171.544L1986.12,171.544L1986.12,171.544L1985.74,171.533L1984.85,171.509L1984.85,171.509L1984.85,171.509L1984.38,171.498L1983.56,171.479L1983.56,171.479L1983.56,171.479L1983.02,171.468L1982.28,171.453L1982.28,171.453L1982.28,171.453L1981.67,171.443L1980.99,171.432L1980.99,171.432L1980.99,171.432L1980.31,171.424L1979.7,171.416L1979.7,171.416L1979.7,171.416L1978.95,171.409L1978.4,171.404L1978.4,171.404L1978.4,171.404L1977.55,171.4L1977.11,171.397L1977.11,171.397L1977.11,171.397L1975.8,171.395L1974.58,171.397Z"
                    style="fill:white;fill-rule:nonzero;" />
            </svg>